# Blender v2.83.5 OBJ File: 'Low Poly scene.blend'
# www.blender.org
mtllib boat.mtl
o boat_Plane.001
v -0.815639 -0.291278 0.417839
v -0.526362 -0.291278 -0.749408
v -0.905836 0.275728 0.781787
v -0.436165 0.275728 -1.113355
v 1.363079 -0.291278 0.957788
v 1.652356 -0.291278 -0.209459
v 1.543391 0.275728 1.388775
v 2.013062 0.275728 -0.506366
v -1.639491 -0.291278 -0.277862
v -1.579745 -0.291278 -0.518940
v -1.969294 0.275728 -0.279812
v -1.872291 0.275728 -0.671226
v -0.783756 0.275728 0.618574
v -0.404430 0.275728 -0.912023
v 1.366544 0.275728 1.151480
v 1.745870 0.275728 -0.379116
v -1.761394 0.275728 -0.314615
v -1.704702 0.275728 -0.543366
v -0.408642 -0.266864 -0.727690
v 1.549797 -0.266864 -0.242332
v 1.257037 -0.266864 0.938964
v -0.701401 -0.266864 0.453606
v -1.540095 -0.266864 -0.474866
v -1.583848 -0.266864 -0.298319
v -0.086610 -0.059920 0.748747
v -0.086610 0.064935 0.748747
v -0.370308 -0.059920 0.678438
v -0.370308 0.064935 0.678438
v 0.273417 -0.059920 -0.703978
v 0.273417 0.064935 -0.703978
v -0.010281 -0.059920 -0.774286
v -0.010281 0.064935 -0.774286
v 0.778026 -0.059920 0.963029
v 0.778026 0.064935 0.963029
v 0.494328 -0.059920 0.892720
v 0.494328 0.064935 0.892720
v 1.138053 -0.059920 -0.489696
v 1.138053 0.064935 -0.489696
v 0.854355 -0.059920 -0.560004
v 0.854355 0.064935 -0.560004
vt 0.000000 0.000000
vt 0.000000 0.000000
vt 0.000000 0.000000
vt 0.000000 0.000000
vt 0.000000 0.000000
vt 0.000000 0.000000
vt 0.000000 0.000000
vt 0.000000 0.000000
vt 0.000000 0.000000
vt 0.000000 0.000000
vt 0.000000 0.000000
vt 0.000000 0.000000
vt 0.000000 0.000000
vt 0.000000 0.000000
vt 0.000000 0.000000
vt 0.000000 0.000000
vt 0.000000 0.000000
vt 0.000000 0.000000
vt 0.000000 0.000000
vt 0.000000 0.000000
vt 0.000000 0.000000
vt 0.000000 0.000000
vt 0.000000 0.000000
vt 0.000000 0.000000
vt 0.625000 0.000000
vt 0.375000 0.250000
vt 0.375000 0.000000
vt 0.625000 0.250000
vt 0.375000 0.500000
vt 0.625000 0.500000
vt 0.375000 0.750000
vt 0.625000 0.750000
vt 0.375000 1.000000
vt 0.125000 0.750000
vt 0.125000 0.500000
vt 0.875000 0.500000
vt 0.625000 0.000000
vt 0.375000 0.250000
vt 0.375000 0.000000
vt 0.625000 0.250000
vt 0.375000 0.500000
vt 0.625000 0.500000
vt 0.375000 0.750000
vt 0.625000 0.750000
vt 0.375000 1.000000
vt 0.125000 0.750000
vt 0.125000 0.500000
vt 0.875000 0.500000
vt 0.625000 1.000000
vt 0.875000 0.750000
vt 0.625000 1.000000
vt 0.875000 0.750000
vn 0.2006 -0.5516 -0.8096
vn 0.0000 -1.0000 0.0000
vn -0.2006 -0.5516 0.8096
vn 0.8711 -0.4411 0.2159
vn -0.2724 -0.3782 -0.8848
vn -0.5549 -0.5101 0.6572
vn -0.8449 -0.4922 -0.2094
vn 0.0000 1.0000 0.0000
vn 0.6765 0.2001 -0.7087
vn -0.9322 0.2786 -0.2310
vn -0.2283 0.3148 0.9213
vn 0.9232 0.3089 0.2288
vn 0.2071 0.3133 0.9268
vn 0.2283 0.3148 -0.9213
vn -0.2406 0.0000 0.9706
vn -0.9706 0.0000 -0.2406
vn 0.2406 0.0000 -0.9706
vn 0.9706 0.0000 0.2406
vn -0.1838 -0.5101 -0.8402
vn -0.6540 -0.3782 0.6552
vn 0.6159 0.3133 -0.7228
vn 0.2673 0.2001 0.9426
usemtl Material.004
s off
f 4/1/1 6/2/1 2/3/1
f 2/3/2 5/4/2 1/5/2
f 3/6/3 5/4/3 7/7/3
f 5/4/4 8/8/4 7/7/4
f 4/1/5 10/9/5 12/10/5
f 1/5/2 10/9/2 2/3/2
f 3/6/6 9/11/6 1/5/6
f 12/10/7 9/11/7 11/12/7
f 11/12/8 18/13/8 12/10/8
f 13/14/9 24/15/9 17/16/9
f 8/8/8 15/17/8 7/7/8
f 3/6/8 17/16/8 11/12/8
f 4/1/8 16/18/8 8/8/8
f 4/1/8 18/13/8 14/19/8
f 3/6/8 15/17/8 13/14/8
f 22/20/8 21/21/8 20/22/8
f 16/18/10 21/21/10 15/17/10
f 14/19/11 20/22/11 16/18/11
f 17/16/12 23/23/12 18/13/12
f 14/19/13 23/23/13 19/24/13
f 13/14/14 21/21/14 22/20/14
f 26/25/15 27/26/15 25/27/15
f 28/28/16 31/29/16 27/26/16
f 32/30/17 29/31/17 31/29/17
f 30/32/18 25/33/18 29/31/18
f 31/29/2 25/34/2 27/35/2
f 28/36/8 30/32/8 32/30/8
f 34/37/15 35/38/15 33/39/15
f 36/40/16 39/41/16 35/38/16
f 40/42/17 37/43/17 39/41/17
f 38/44/18 33/45/18 37/43/18
f 39/41/2 33/46/2 35/47/2
f 36/48/8 38/44/8 40/42/8
f 4/1/1 8/8/1 6/2/1
f 2/3/2 6/2/2 5/4/2
f 3/6/3 1/5/3 5/4/3
f 5/4/4 6/2/4 8/8/4
f 4/1/19 2/3/19 10/9/19
f 1/5/2 9/11/2 10/9/2
f 3/6/20 11/12/20 9/11/20
f 12/10/7 10/9/7 9/11/7
f 11/12/8 17/16/8 18/13/8
f 13/14/21 22/20/21 24/15/21
f 8/8/8 16/18/8 15/17/8
f 3/6/8 13/14/8 17/16/8
f 4/1/8 14/19/8 16/18/8
f 4/1/8 12/10/8 18/13/8
f 3/6/8 7/7/8 15/17/8
f 20/22/8 19/24/8 22/20/8
f 19/24/8 23/23/8 22/20/8
f 23/23/8 24/15/8 22/20/8
f 16/18/10 20/22/10 21/21/10
f 14/19/11 19/24/11 20/22/11
f 17/16/12 24/15/12 23/23/12
f 14/19/22 18/13/22 23/23/22
f 13/14/14 15/17/14 21/21/14
f 26/25/15 28/28/15 27/26/15
f 28/28/16 32/30/16 31/29/16
f 32/30/17 30/32/17 29/31/17
f 30/32/18 26/49/18 25/33/18
f 31/29/2 29/31/2 25/34/2
f 28/36/8 26/50/8 30/32/8
f 34/37/15 36/40/15 35/38/15
f 36/40/16 40/42/16 39/41/16
f 40/42/17 38/44/17 37/43/17
f 38/44/18 34/51/18 33/45/18
f 39/41/2 37/43/2 33/46/2
f 36/48/8 34/52/8 38/44/8
